<svg width="21" height="22" viewBox="0 0 21 22" fill="none" xmlns="http://www.w3.org/2000/svg">
<path d="M11.4712 0.646362C11.276 0.4511 10.9594 0.4511 10.7641 0.646362L7.58214 3.82834C7.38688 4.02361 7.38688 4.34019 7.58214 4.53545C7.7774 4.73071 8.09399 4.73071 8.28925 4.53545L11.1177 1.70702L13.9461 4.53545C14.1414 4.73071 14.4579 4.73071 14.6532 4.53545C14.8485 4.34019 14.8485 4.02361 14.6532 3.82834L11.4712 0.646362ZM11.6177 13.353L11.6177 0.999916H10.6177L10.6177 13.353H11.6177Z" fill="#ffffff"/>
<line x1="6.17627" y1="12.853" x2="14.8234" y2="12.853" stroke="#ffffff"/>
<mask id="path-3-inside-1_40_1143" fill="white">
<path fill-rule="evenodd" clip-rule="evenodd" d="M5.52636 7.63135H0V22.0001H21.0005V7.63135H15.474V9.84173H18.7898V19.7893H2.21049V9.84173H5.52636V7.63135Z"/>
</mask>
<path fill-rule="evenodd" clip-rule="evenodd" d="M5.52636 7.63135H0V22.0001H21.0005V7.63135H15.474V9.84173H18.7898V19.7893H2.21049V9.84173H5.52636V7.63135Z" fill="#ffffff"/>
<path d="M0 7.63135V6.63135H-1V7.63135H0ZM5.52636 7.63135H6.52636V6.63135H5.52636V7.63135ZM0 22.0001H-1V23.0001H0V22.0001ZM21.0005 22.0001V23.0001H22.0005V22.0001H21.0005ZM21.0005 7.63135H22.0005V6.63135H21.0005V7.63135ZM15.474 7.63135V6.63135H14.474V7.63135H15.474ZM15.474 9.84173H14.474V10.8417H15.474V9.84173ZM18.7898 9.84173H19.7898V8.84173H18.7898V9.84173ZM18.7898 19.7893V20.7893H19.7898V19.7893H18.7898ZM2.21049 19.7893H1.21049V20.7893H2.21049V19.7893ZM2.21049 9.84173V8.84173H1.21049V9.84173H2.21049ZM5.52636 9.84173V10.8417H6.52636V9.84173H5.52636ZM0 8.63135H5.52636V6.63135H0V8.63135ZM1 22.0001V7.63135H-1V22.0001H1ZM21.0005 21.0001H0V23.0001H21.0005V21.0001ZM20.0005 7.63135V22.0001H22.0005V7.63135H20.0005ZM15.474 8.63135H21.0005V6.63135H15.474V8.63135ZM14.474 7.63135V9.84173H16.474V7.63135H14.474ZM15.474 10.8417H18.7898V8.84173H15.474V10.8417ZM17.7898 9.84173V19.7893H19.7898V9.84173H17.7898ZM18.7898 18.7893H2.21049V20.7893H18.7898V18.7893ZM3.21049 19.7893V9.84173H1.21049V19.7893H3.21049ZM2.21049 10.8417H5.52636V8.84173H2.21049V10.8417ZM6.52636 9.84173V7.63135H4.52636V9.84173H6.52636Z" fill="#ffffff" mask="url(#path-3-inside-1_40_1143)"/>
</svg>
