<svg width="22" height="22" viewBox="0 0 22 22" fill="#ffffff" xmlns="http://www.w3.org/2000/svg">
<g clip-path="url(#clip0_40_1136)">
<path d="M21.7734 11.6337C21.7826 11.6224 21.7907 11.6105 21.7995 11.5988C21.8103 11.5844 21.8215 11.5703 21.8315 11.5552C21.8411 11.541 21.8493 11.5262 21.858 11.5116C21.866 11.4983 21.8744 11.4852 21.8817 11.4714C21.8897 11.4564 21.8966 11.4409 21.9038 11.4256C21.9105 11.4113 21.9176 11.3973 21.9237 11.3827C21.9299 11.3677 21.9349 11.3524 21.9404 11.3372C21.9459 11.3217 21.9519 11.3063 21.9567 11.2904C21.9613 11.275 21.9648 11.2594 21.9687 11.2438C21.9728 11.2277 21.9772 11.2119 21.9805 11.1955C21.9841 11.1773 21.9862 11.159 21.9888 11.1407C21.9908 11.1267 21.9935 11.1129 21.9949 11.0987C22.0014 11.033 22.0014 10.9668 21.9949 10.9011C21.9935 10.8869 21.9908 10.8731 21.9888 10.8591C21.9862 10.8409 21.9841 10.8225 21.9805 10.8043C21.9772 10.7879 21.9728 10.7721 21.9687 10.756C21.9648 10.7405 21.9614 10.7248 21.9567 10.7094C21.9519 10.6935 21.9459 10.6782 21.9404 10.6626C21.9349 10.6474 21.9299 10.6321 21.9237 10.6171C21.9176 10.6025 21.9105 10.5885 21.9038 10.5742C21.8966 10.5589 21.8897 10.5435 21.8817 10.5284C21.8744 10.5147 21.866 10.5015 21.858 10.4882C21.8492 10.4736 21.841 10.4588 21.8315 10.4446C21.8215 10.4295 21.8103 10.4154 21.7995 10.401C21.7907 10.3893 21.7826 10.3774 21.7734 10.3661C21.7524 10.3405 21.7303 10.3159 21.7068 10.2925L18.0405 6.62607C17.6501 6.2356 17.0169 6.23553 16.6263 6.626C16.2358 7.01653 16.2358 7.64967 16.6263 8.0402L18.5858 10H11.9999V3.4142L13.9595 5.37373C14.1548 5.569 14.4107 5.6666 14.6666 5.6666C14.9224 5.6666 15.1784 5.569 15.3736 5.37373C15.7642 4.9832 15.7642 4.35007 15.3736 3.95953L11.7072 0.293067C11.684 0.27 11.6598 0.248067 11.6346 0.227267C11.6279 0.2218 11.6208 0.2172 11.614 0.211933C11.595 0.197067 11.576 0.182333 11.5559 0.168867C11.5496 0.164667 11.543 0.1612 11.5366 0.1572C11.5154 0.143667 11.494 0.130333 11.4718 0.1184C11.4671 0.115867 11.4621 0.113933 11.4574 0.111467C11.4332 0.0989333 11.4086 0.0869333 11.3832 0.0764C11.3799 0.0750667 11.3764 0.074 11.373 0.0726667C11.3463 0.0618667 11.3191 0.0519333 11.2913 0.0434C11.2876 0.0422667 11.2838 0.0416667 11.2802 0.0405333C11.2528 0.0325333 11.225 0.0252 11.1967 0.0195333C11.1882 0.0178667 11.1794 0.0170667 11.1708 0.0156C11.1472 0.0115333 11.1238 0.00733333 11.0997 0.005C11.0667 0.00173333 11.0334 0 10.9999 0C10.9664 0 10.9331 0.00173333 10.9001 0.00506667C10.8756 0.00753333 10.8516 0.0117333 10.8276 0.0158667C10.8195 0.0172667 10.8112 0.018 10.8031 0.0196C10.7742 0.0253333 10.7462 0.0327333 10.7183 0.0409333C10.715 0.0418667 10.7118 0.0424667 10.7086 0.0434667C10.6802 0.0520667 10.6526 0.0622667 10.6253 0.0732667C10.6225 0.0744667 10.6195 0.0752667 10.6167 0.0764C10.5908 0.0871333 10.5658 0.0993333 10.541 0.112133C10.5368 0.114333 10.5323 0.116133 10.5281 0.118333C10.5054 0.1306 10.4835 0.144133 10.4618 0.158C10.456 0.161733 10.4498 0.165 10.444 0.168867C10.4233 0.182667 10.4036 0.197867 10.3841 0.2132C10.3779 0.218 10.3714 0.222267 10.3653 0.227267C10.34 0.248067 10.3158 0.27 10.2926 0.293067L6.6263 3.95953C6.23577 4.35007 6.23577 4.9832 6.6263 5.37373C7.01677 5.7642 7.64997 5.76427 8.0405 5.37373L9.9999 3.41427V10H3.4141L5.3737 8.0404C5.76423 7.64987 5.76423 7.01673 5.3737 6.6262C4.98323 6.23567 4.35003 6.23567 3.9595 6.6262L0.293033 10.2927C0.269633 10.3161 0.2475 10.3407 0.2265 10.3663C0.217233 10.3776 0.2091 10.3895 0.200367 10.4012C0.189567 10.4156 0.178367 10.4297 0.168367 10.4448C0.158767 10.459 0.150567 10.4738 0.141833 10.4884C0.133833 10.5017 0.125433 10.5148 0.1181 10.5286C0.110033 10.5436 0.103233 10.5591 0.0960333 10.5744C0.0893 10.5887 0.0822333 10.6027 0.0761 10.6173C0.0699 10.6323 0.0649 10.6476 0.0594333 10.6628C0.0539 10.6783 0.0479 10.6937 0.0431 10.7096C0.0385 10.725 0.0350333 10.7406 0.0311 10.7562C0.0270333 10.7723 0.0225667 10.7881 0.0193 10.8045C0.0157 10.8227 0.0135 10.841 0.0109667 10.8593C0.00896666 10.8733 0.0063 10.8871 0.0049 10.9013C-0.00163333 10.967 -0.00163333 11.0332 0.0049 11.0989C0.0063 11.1131 0.00896666 11.1269 0.0109667 11.1409C0.0135 11.1591 0.0157 11.1775 0.0193 11.1957C0.0225667 11.2121 0.0270333 11.2279 0.0311 11.244C0.0350333 11.2595 0.0384333 11.2752 0.0431 11.2906C0.0479 11.3065 0.0539 11.3218 0.0594333 11.3374C0.0649 11.3526 0.0699 11.3679 0.0761 11.3829C0.0822333 11.3975 0.0893 11.4115 0.0960333 11.4258C0.103233 11.4411 0.110033 11.4565 0.1181 11.4716C0.125433 11.4853 0.133833 11.4985 0.141833 11.5118C0.150567 11.5264 0.158767 11.5412 0.168367 11.5554C0.178367 11.5705 0.189567 11.5846 0.200367 11.599C0.2091 11.6107 0.217233 11.6226 0.2265 11.6339C0.247567 11.6595 0.269633 11.6841 0.293033 11.7075L3.9595 15.3739C4.1547 15.5691 4.41063 15.6667 4.66657 15.6667C4.9225 15.6667 5.17843 15.5691 5.37363 15.3737C5.76417 14.9832 5.76417 14.3501 5.37363 13.9595L3.4141 12H9.9999V18.5857L8.04043 16.6263C7.64997 16.2357 7.01677 16.2358 6.62623 16.6263C6.2357 17.0168 6.2357 17.6499 6.62623 18.0405L10.2926 21.7069C10.3157 21.7301 10.34 21.752 10.3652 21.7727C10.3714 21.7777 10.3778 21.7819 10.384 21.7867C10.4036 21.8021 10.4232 21.8173 10.4439 21.8311C10.4498 21.8349 10.4559 21.8381 10.4618 21.8419C10.4834 21.8558 10.5053 21.8694 10.528 21.8816C10.5322 21.8839 10.5368 21.8856 10.541 21.8878C10.5657 21.9006 10.5908 21.9128 10.6166 21.9235C10.6194 21.9247 10.6224 21.9255 10.6252 21.9267C10.6525 21.9377 10.6802 21.9479 10.7085 21.9565C10.7118 21.9575 10.715 21.958 10.7182 21.959C10.7461 21.9672 10.7742 21.9745 10.803 21.9803C10.8111 21.9819 10.8194 21.9827 10.8276 21.9841C10.8515 21.9883 10.8755 21.9924 10.9 21.9949C10.933 21.9982 10.9664 21.9999 10.9998 21.9999C11.0333 21.9999 11.0666 21.9982 11.0996 21.9949C11.1242 21.9924 11.1481 21.9882 11.1721 21.9841C11.1802 21.9826 11.1886 21.9819 11.1966 21.9803C11.2255 21.9746 11.2536 21.9672 11.2814 21.959C11.2847 21.9581 11.288 21.9575 11.2912 21.9565C11.3195 21.9479 11.3472 21.9377 11.3744 21.9267C11.3772 21.9255 11.3802 21.9247 11.383 21.9235C11.4089 21.9128 11.434 21.9006 11.4587 21.8878C11.4629 21.8856 11.4674 21.8838 11.4716 21.8816C11.4944 21.8693 11.5162 21.8558 11.5379 21.8419C11.5438 21.8382 11.5499 21.835 11.5558 21.8311C11.5764 21.8173 11.5961 21.8021 11.6156 21.7867C11.6218 21.7819 11.6283 21.7777 11.6344 21.7727C11.6597 21.7519 11.684 21.73 11.7071 21.7069L15.3736 18.0405C15.7641 17.65 15.7641 17.0168 15.3736 16.6263C14.9832 16.2358 14.35 16.2357 13.9594 16.6263L11.9999 18.5858V12H18.5858L16.6262 13.9596C16.2357 14.3501 16.2357 14.9833 16.6262 15.3738C16.8215 15.5691 17.0774 15.6667 17.3334 15.6667C17.5893 15.6667 17.8452 15.569 18.0404 15.3737L21.7068 11.7073C21.7302 11.6839 21.7523 11.6593 21.7734 11.6337Z" fill="#ffffff"/>
</g>
<defs>
<clipPath id="clip0_40_1136">
<rect width="22" height="22" fill="#ffffff"/>
</clipPath>
</defs>
</svg>
